# xmcd
#
# Track frame offsets: 
#        150
#        20571
#        33510
#        56766
#        69302
#        86031
#        97417
#        111659
#        128263
#        148858
#        165949
#
# Disc length: 2373 seconds
#
# Revision: 1
# Processed by: cddbd v1.5.2PL0 Copyright (c) Steve Scherf et al.
# Submitted via: ExactAudioCopy v1.0b3
#
DISCID=9a09430b
DTITLE=Leiv Jetton and 61 South - State Line Blues
DYEAR=2000
DGENRE=Blues
TTITLE0=Curse The Day
TTITLE1=Betcha
TTITLE2=What's Wrong
TTITLE3=House Cat Blues
TTITLE4=Getting Colder
TTITLE5=Show Me
TTITLE6=Hashpuppies
TTITLE7=State Line Blues
TTITLE8=Homegrown Tomato
TTITLE9=Bad Boy
TTITLE10=Heavy Weather
EXTD=
EXTT0=
EXTT1=
EXTT2=
EXTT3=
EXTT4=
EXTT5=
EXTT6=
EXTT7=
EXTT8=
EXTT9=
EXTT10=
PLAYORDER=
